PathFileType	4	(X/Y/Z)	RBDS014\RBDS014runT35.trc
DataRate	CameraRate	NumFrames	NumMarkers	Units	OrigDataRate	OrigDataStartFrame	OrigNumFrames
150.000000	150.000000	6	33	mm	150.000000	1687	4500
Frame#	Time	L.ASIS			L.Heel.Bottom			L.Heel.Lateral			L.Heel.Top			L.Iliac.Crest			L.MT1			L.MT5			L.PSIS			L.Shank.Bottom.Lateral			L.Shank.Bottom.Medial			L.Shank.Top.Lateral			L.Shank.Top.Medial			L.Thigh.Bottom.Lateral			L.Thigh.Bottom.Medial			L.Thigh.Top.Lateral			L.Thigh.Top.Medial			R.ASIS			R.ASY			R.Heel.Bottom			R.Heel.Lateral			R.Heel.Top			R.Iliac.Crest			R.MT1			R.MT5			R.PSIS			R.Shank.Bottom.Lateral			R.Shank.Bottom.Medial			R.Shank.Top.Lateral			R.Shank.Top.Medial			R.Thigh.Bottom.Lateral			R.Thigh.Bottom.Medial			R.Thigh.Top.Lateral			R.Thigh.Top.Medial			
		X1	Y1	Z1	X2	Y2	Z2	X3	Y3	Z3	X4	Y4	Z4	X5	Y5	Z5	X6	Y6	Z6	X7	Y7	Z7	X8	Y8	Z8	X9	Y9	Z9	X10	Y10	Z10	X11	Y11	Z11	X12	Y12	Z12	X13	Y13	Z13	X14	Y14	Z14	X15	Y15	Z15	X16	Y16	Z16	X17	Y17	Z17	X18	Y18	Z18	X19	Y19	Z19	X20	Y20	Z20	X21	Y21	Z21	X22	Y22	Z22	X23	Y23	Z23	X24	Y24	Z24	X25	Y25	Z25	X26	Y26	Z26	X27	Y27	Z27	X28	Y28	Z28	X29	Y29	Z29	X30	Y30	Z30	X31	Y31	Z31	X32	Y32	Z32	X33	Y33	Z33	

1688	11.24666666666667	2183.444259894738	1106.426812742079	919.2164144029578	2016.421311549374	213.9131052013022	1010.340752437521	2044.513311846384	227.1393764549789	968.7021800305732	2045.350942506158	256.2140679379162	1012.074885387855	2111.949601228662	1181.646477267768	876.5287088073489	2238.773341480312	133.3340099717938	1039.197703437203	2195.441177130757	147.5611102666606	926.0073932702261	2006.878221108796	1147.212744335699	969.6875965021494	2162.630241475178	337.1118347758753	946.9674301349594	2124.231162396725	358.5339275478722	980.8428539240252	2192.124732829666	411.4807435124938	935.6097772408722	2155.428635718386	432.9369403724584	968.7371242612652	2293.768451553055	786.9931530316712	893.8587612929924	2241.301131662868	744.7912603882896	921.6779563247279	2216.046726793378	860.8690630997094	867.7387710032482	2166.466973168236	822.4642454595162	895.4946364792621	2175.828096689646	1094.523675060222	1157.356032129517	1688.732878752589	104.8474331233798	1090.13835534918	1509.881048781026	203.1778368721311	1060.322941082881	1535.474224064049	198.5796980583157	1103.33460745644	1551.203093992295	232.895061371017	1068.004088280941	2143.005964899804	1173.818316212409	1173.552538263636	1687.746206695955	55.21903724222608	1030.712452101618	1638.500204623447	62.50431594654312	1144.555054250928	2010.264420637198	1145.982326469	1069.53467279687	1643.96107059895	291.9342190534295	1132.464071781249	1628.451525427947	312.7998705159374	1087.998091447278	1680.677970057853	366.5057931260236	1151.9564602877	1661.014711128769	384.775413875513	1105.80983892846	1967.591754957797	718.5493484638499	1199.747955856985	1908.180638719	742.526974567788	1163.508944037429	1996.619457943309	823.5900039380537	1214.875421098946	1942.483096031661	845.9777330163984	1176.868663320547	
1689	11.25333333333333	2184.463772924464	1110.797299752306	919.0009850289431	2043.789757909795	194.2533406528082	1011.612112117285	2071.350697469989	208.8532897144971	970.0029694710371	2069.675331414026	238.4863964949791	1012.865366729062	2112.746692762923	1187.069913404137	877.3512217429218	2270.857473971933	130.1261642226642	1043.554494626557	2227.938881573302	139.6027353396875	929.8631050951581	2008.590567688258	1151.709416961788	970.6314591103971	2181.563986224758	326.9739424290319	947.7722639133741	2142.195577719636	346.2222658012233	981.8556422948227	2206.500198997492	402.9215307469029	935.9992910022842	2168.845870953822	422.3144580140674	969.3965010262328	2293.243739373098	789.4804473113501	893.7823252374407	2240.110192526648	747.466515025503	920.7152960071337	2216.348360615582	864.1119605607464	867.3673691973796	2166.250393869252	826.0201983954807	894.502863232204	2177.980290374167	1096.324256719087	1156.364457258357	1673.284153518357	109.7924494423104	1091.540857141784	1499.91716587684	217.6568490008225	1060.088181514323	1524.81415945719	211.5981037456555	1103.382445620173	1542.830666716441	244.993612253915	1068.301357649249	2147.213362703469	1177.37916699066	1172.320913335789	1669.632157451805	59.48834964034585	1032.144316747406	1619.980533865071	69.04870306381608	1145.025403135782	2012.127275955561	1149.431883978812	1070.371137051359	1633.263176260775	300.4538736665061	1133.007357735579	1618.231828917173	320.787274045768	1088.093069900939	1670.284163196679	375.1595145913386	1151.759945381473	1650.880944884646	392.9183496439314	1105.277136797019	1961.94980593529	723.9696416519197	1198.502531927817	1903.431280259968	749.5337091341834	1162.028903197516	1993.52592417558	828.2944200508398	1214.109695091983	1940.359431083726	852.0271132879896	1175.647924934034	
1690	11.26	2185.172534896848	1114.585433514874	918.8081694393759	2071.66701124467	175.5523480323779	1012.45372385347	2098.773056589323	191.3364194333614	970.9217910004288	2094.419733920359	221.4703685244941	1013.141123087653	2113.273856301877	1191.826479232485	878.1077535990241	2302.053341021568	128.1275198947569	1048.367536883408	2260.328853868656	132.5358544119811	934.0309348575057	2009.967783943005	1155.45491836663	971.5914605126667	2200.498821689108	317.1083827235641	948.2729880501162	2160.258625128213	334.173350245094	982.4964376164149	2220.840913933444	394.2989632181414	936.0084393572396	2182.32011026689	411.6277130400722	969.5948297666677	2292.0622190152	790.8517284343983	893.4225424184405	2238.277890696185	749.2147120811217	919.6864527786687	2216.12313796936	866.409585821532	866.8999135479278	2165.520680888987	828.7907275550809	893.6136238635822	2179.901023304602	1098.067438982886	1155.573258654116	1658.112019880078	115.7588623082485	1093.033174092491	1490.639587875469	232.2535917914283	1059.011484602339	1514.644631354643	225.0406023216716	1102.679330233165	1534.94131134803	257.2876846544164	1067.83930272185	2150.676280048721	1180.444590073609	1171.320667292869	1652.115819495414	64.72506125868895	1033.953330490373	1601.810841640097	76.82808566358074	1145.474109015275	2013.767315856137	1152.391562956368	1071.184486150501	1623.087083554549	309.2856681121874	1133.165738468649	1608.613107443168	329.159965502379	1087.858189212633	1660.616404699013	383.96259053137	1151.298849703586	1641.560006803185	401.3161761934707	1104.509917411464	1957.128349382997	729.1461061721619	1197.222543632108	1899.463302772111	756.1445547999157	1160.538859380214	1990.971338150452	832.778311490624	1213.363441060342	1938.711909396623	857.7215538923948	1174.494013223779	
1691	11.26666666666667	2185.569530368054	1117.736676198177	918.6242889823035	2099.818939613193	157.9315203859246	1012.941376253591	2126.52247405144	174.7526057431935	971.5240796951515	2119.374791589376	205.2789721128039	1012.996634748044	2113.493961743108	1195.79753904872	878.7356338990577	2332.137992684007	127.2814005065933	1053.432156894266	2292.302872832168	126.4879482159982	938.3608155284248	2011.001086460578	1158.429541081493	972.4927655046912	2219.307017113173	307.5978048891183	948.5033826536562	2178.259660047861	322.4707909678	982.7591529506645	2235.04571882925	385.6987925205889	935.6508037990677	2195.717988225543	400.9598322940683	969.3046698981597	2290.215091511094	791.1421312037716	892.7466018267025	2235.833111277489	750.0815176231965	918.6313240000261	2215.331063213147	867.7638183048836	866.3129403735683	2164.26948216018	830.7817262725373	892.8622515769724	2181.57939514353	1099.766064248408	1154.99372220305	1643.146111056765	122.771324220489	1094.605080096575	1481.864372300977	246.874604853854	1056.970923664038	1504.794267796306	238.8537634509279	1101.103454198444	1527.338552261481	269.7401959423709	1066.499693137549	2153.312402886502	1182.98209445342	1170.584747162912	1635.183053997199	70.92203800489547	1036.129817658009	1583.94024142446	85.90271587306233	1145.888126200727	2015.178684472202	1154.850591114935	1071.922476231603	1613.328283904252	318.4817090532852	1132.836648271458	1599.527166537277	337.970933554161	1087.183671060893	1651.597508267617	392.9343472143396	1150.492560505502	1633.027737565122	409.990700070352	1103.413137807619	1953.193665340979	733.9743080480274	1195.978161904663	1896.311911355418	762.2274294408955	1159.108165598113	1988.989962933523	836.9646142294184	1212.6735839118	1937.53526636982	862.9669748231452	1173.466230510531	
1692	11.27333333333333	2185.669303838959	1120.218221417556	918.4320825513551	2127.972446915408	141.4893864996089	1013.165688914643	2154.286229282664	159.2482383255168	971.8860723275609	2144.290510156387	190.0082775891731	1012.548140920532	2113.388049271591	1198.890374300481	879.1826834348163	2360.892394914426	127.511878617099	1058.507834813851	2323.504300263551	121.5784416433817	942.671274027075	2011.700268072432	1160.6421330894	973.2774275140338	2237.834690013904	298.5273264169044	948.5071400616642	2196.013407325469	311.1999685824177	982.6520046425252	2248.994013464362	377.2174697560919	934.9605241943934	2208.889170368021	390.4017909529365	968.5265469327167	2287.709839921519	790.4185822508314	891.7447823103768	2232.812549404501	750.1320982205467	917.58828052864	2213.951253750289	868.2092203854224	865.5979810286354	2162.501073095304	832.0233983424368	892.2776680144397	2183.022993828383	1101.420858316436	1154.617281181312	1628.332795087089	130.8244697811313	1096.222461968379	1473.416040133413	261.4511238700505	1053.916347897681	1495.114864412718	252.9852755459494	1098.595088890612	1519.847170417144	282.3262861539262	1064.225851199446	2155.107877585001	1184.999312067722	1170.117609842223	1618.80126130598	78.0550567025371	1038.620447322159	1566.338996794524	96.28967743504374	1146.246707679501	2016.367104768663	1156.813822838345	1072.544237824254	1603.905811757962	328.0857072177757	1131.947048662917	1590.92349453029	347.2576688500451	1085.986000908866	1643.16593782525	402.0927707330608	1149.278635411677	1625.269028853473	418.9513803467318	1101.909459074988	1950.203458897918	738.3386356569268	1194.84633992069	1894.005897902463	767.6409913191321	1157.812440249628	1987.611192038547	840.7641421543324	1212.081751447949	1936.824652656403	867.6572213447961	1172.623380752924	
1693	11.28	2185.50019240468	1122.0207486148	918.2140461142709	2155.811618492813	126.2932370570456	1013.217278313279	2181.699681404044	144.9379044305359	972.0809994543259	2168.873526851671	175.7303766782553	1011.916469216896	2112.958339381111	1201.04737391066	879.4141264369919	2388.101114875354	128.719781055135	1063.339056563172	2353.541015075013	117.8950010741938	946.7630794295966	2012.0906767957	1162.126084689839	973.9097069470922	2255.896298904971	289.9763025489751	948.3299210750234	2213.309123054605	300.4438268539546	982.1953400946583	2262.541774129065	368.955220175551	933.9876693090121	2221.666737565284	380.0503758062518	967.2895276690723	2284.580812422179	788.7797657657228	890.4353324906346	2229.26770786713	749.4484780363846	916.5891172255374	2211.993807930666	867.8136791769311	864.7640341419935	2160.241208932452	832.5682617370626	891.8763945130637	2184.254286605506	1103.018390116564	1154.417759587895	1613.644961595802	139.8852604951828	1097.824033225013	1465.150865197464	275.9504768081523	1049.882671270846	1485.504138829769	267.3918084017823	1095.170091469514	1512.335978860865	295.0387383387201	1061.035358660706	2156.115583097929	1186.53738496034	1169.894624895149	1602.924094698622	86.09121122114389	1041.32549144005	1549.009740129923	107.9597195078814	1146.518602430956	2017.347223748374	1158.297415653843	1073.025133839677	1594.775789647437	338.1268538643832	1130.464956723664	1582.777215182838	357.0378466692284	1084.221837644066	1635.288692588756	411.4490544626559	1147.62354350403	1618.282199606591	428.1923141807767	1099.95330677522	1948.19983227287	742.1190758811548	1193.901786937907	1892.563174771141	772.243626143936	1156.724287485029	1986.854935290399	844.0807561830559	1211.627976450078	1936.574276895346	871.6804851183746	1172.014920827121	
